<svg xmlns="http://www.w3.org/2000/svg" xmlns:xlink="http://www.w3.org/1999/xlink" width="16" zoomAndPan="magnify" viewBox="0 0 375 374.999991" height="16" preserveAspectRatio="xMidYMid meet" version="1.0"><defs><clipPath id="d56486b0ba"><path d="M 0 18.75 L 375 18.75 L 375 351 L 0 351 Z M 0 18.75 " clip-rule="nonzero"/></clipPath></defs><g clip-path="url(#d56486b0ba)"><path fill="#0ea5e9" d="M 153.703125 159.394531 L 170.597656 170.933594 C 171.46875 169.351562 173.148438 168.277344 175.078125 168.277344 L 200.839844 168.277344 C 203.644531 168.277344 205.941406 170.574219 205.941406 173.378906 L 205.941406 199.148438 C 205.941406 201.953125 203.644531 204.242188 200.839844 204.242188 L 188.355469 204.242188 L 177.507812 225.632812 L 179.679688 225.632812 C 183.289062 225.632812 186.234375 228.578125 186.234375 232.191406 L 186.234375 246.511719 L 222.625 247.105469 L 222.625 246.214844 C 222.625 244.082031 224.371094 242.332031 226.511719 242.332031 L 246.140625 242.332031 C 248.28125 242.332031 250.027344 244.074219 250.027344 246.214844 L 250.027344 265.851562 C 250.027344 267.988281 248.28125 269.738281 246.140625 269.738281 L 226.511719 269.738281 C 224.371094 269.738281 222.625 267.996094 222.625 265.851562 L 222.625 256.789062 L 186.234375 256.195312 L 186.234375 265.332031 C 186.234375 268.941406 183.289062 271.886719 179.679688 271.886719 L 146.542969 271.886719 C 142.933594 271.886719 139.988281 268.941406 139.988281 265.332031 L 139.988281 232.199219 C 139.988281 228.585938 142.933594 225.640625 146.542969 225.640625 L 166.648438 225.640625 L 177.496094 204.25 L 175.078125 204.25 C 172.265625 204.25 169.976562 201.960938 169.976562 199.15625 L 169.976562 182.246094 L 152.71875 170.460938 C 151.335938 172.992188 148.648438 174.714844 145.578125 174.714844 L 104.480469 174.714844 C 100 174.714844 96.347656 171.054688 96.347656 166.574219 L 96.347656 125.476562 C 96.347656 120.996094 100.007812 117.34375 104.480469 117.34375 L 145.578125 117.34375 C 150.054688 117.34375 153.710938 121.003906 153.710938 125.476562 L 153.710938 159.394531 Z M 63.582031 108.765625 L 41.105469 137.101562 L 41.105469 165.019531 C 41.105469 166.382812 40.628906 167.632812 39.839844 168.628906 L 56.019531 187.96875 L 84.339844 187.96875 C 88.820312 187.96875 92.472656 191.628906 92.472656 196.109375 L 92.472656 237.207031 C 92.472656 241.6875 88.8125 245.347656 84.339844 245.347656 L 43.246094 245.347656 C 38.765625 245.347656 35.113281 241.6875 35.113281 237.207031 L 35.113281 196.109375 C 35.113281 191.628906 38.773438 187.96875 43.246094 187.96875 L 43.378906 187.96875 L 29.050781 170.847656 L 5.824219 170.847656 C 2.621094 170.847656 0 168.226562 0 165.027344 L 0 135.574219 C 0 132.375 2.621094 129.753906 5.824219 129.753906 L 34.558594 129.753906 L 51.421875 108.496094 C 47.949219 107.570312 45.378906 104.390625 45.378906 100.640625 L 45.378906 59.535156 C 45.378906 55.054688 49.039062 51.394531 53.511719 51.394531 L 94.609375 51.394531 C 99.089844 51.394531 102.742188 55.054688 102.742188 59.535156 L 102.742188 100.632812 C 102.742188 105.113281 99.082031 108.765625 94.609375 108.765625 Z M 265.523438 311.28125 L 290.730469 283.417969 L 290.722656 283.085938 L 290.722656 235.859375 C 290.722656 233.335938 291.734375 231.046875 293.363281 229.363281 L 280.09375 213.972656 C 279.648438 214.050781 279.183594 214.085938 278.714844 214.085938 L 237.613281 214.085938 C 233.132812 214.085938 229.480469 210.425781 229.480469 205.945312 L 229.480469 164.851562 C 229.480469 160.371094 233.140625 156.71875 237.613281 156.71875 L 278.714844 156.71875 C 283.195312 156.71875 286.851562 160.378906 286.851562 164.851562 L 286.851562 205.945312 C 286.851562 206.277344 286.828125 206.605469 286.792969 206.929688 L 303.675781 226.515625 L 347.28125 226.515625 C 352.421875 226.515625 356.621094 230.71875 356.621094 235.859375 L 356.621094 283.082031 C 356.621094 288.21875 352.417969 292.421875 347.28125 292.421875 L 300.054688 292.421875 C 298.734375 292.421875 297.464844 292.140625 296.320312 291.636719 L 273.140625 317.257812 L 273.140625 345.085938 C 273.140625 348.160156 270.625 350.667969 267.558594 350.667969 L 239.335938 350.667969 C 236.261719 350.667969 233.753906 348.160156 233.753906 345.085938 L 233.753906 316.863281 C 233.753906 313.789062 236.269531 311.28125 239.335938 311.28125 Z M 343.449219 151.15625 L 328.117188 121.589844 L 307.78125 121.589844 C 304.507812 121.589844 301.835938 118.921875 301.835938 115.648438 L 301.835938 85.601562 C 301.835938 82.332031 304.507812 79.660156 307.78125 79.660156 L 337.824219 79.660156 C 341.097656 79.660156 343.769531 82.332031 343.769531 85.601562 L 343.769531 115.648438 C 343.769531 118.53125 341.695312 120.949219 338.960938 121.484375 L 354.351562 151.15625 L 369.085938 151.15625 C 372.355469 151.15625 375.027344 153.828125 375.027344 157.097656 L 375.027344 187.144531 C 375.027344 190.414062 372.355469 193.085938 369.085938 193.085938 L 339.039062 193.085938 C 335.769531 193.085938 333.097656 190.414062 333.097656 187.144531 L 333.097656 157.097656 C 333.097656 153.828125 335.769531 151.15625 339.039062 151.15625 Z M 152.847656 18.855469 L 193.945312 18.855469 C 198.425781 18.855469 202.078125 22.515625 202.078125 26.988281 L 202.078125 68.09375 C 202.078125 72.574219 198.417969 76.226562 193.945312 76.226562 L 186.277344 76.226562 L 194.820312 97.21875 L 216.246094 97.21875 C 216.632812 97.21875 217 97.253906 217.363281 97.324219 L 230.300781 86.402344 C 228.738281 84.917969 227.761719 82.828125 227.761719 80.507812 L 227.761719 39.410156 C 227.761719 34.933594 231.421875 31.273438 235.894531 31.273438 L 277 31.273438 C 281.480469 31.273438 285.132812 34.933594 285.132812 39.410156 L 285.132812 80.507812 C 285.132812 84.988281 281.472656 88.640625 277 88.640625 L 242.660156 88.640625 L 222.179688 105.933594 L 222.179688 133.207031 C 222.179688 136.480469 219.507812 139.152344 216.238281 139.152344 L 186.191406 139.152344 C 182.921875 139.152344 180.25 136.480469 180.25 133.207031 L 180.25 103.164062 C 180.25 100.492188 182.023438 98.222656 184.453125 97.472656 L 175.796875 76.226562 L 152.839844 76.226562 C 148.359375 76.226562 144.699219 72.566406 144.699219 68.09375 L 144.699219 26.988281 C 144.714844 22.515625 148.375 18.855469 152.847656 18.855469 Z M 152.847656 18.855469 " fill-opacity="1" fill-rule="evenodd"/></g></svg>