<svg xmlns="http://www.w3.org/2000/svg" xmlns:xlink="http://www.w3.org/1999/xlink" width="500"
  zoomAndPan="magnify" viewBox="0 0 375 374.999991" height="500" preserveAspectRatio="xMidYMid meet"
  version="1.0">
  <defs>
    <g />
    <clipPath id="f899b4f4c2">
      <path
        d="M 79.566406 37.5 L 295.53125 37.5 L 295.53125 228.605469 L 79.566406 228.605469 Z M 79.566406 37.5 "
        clip-rule="nonzero" />
    </clipPath>
  </defs>
  <g fill="#BCFBFF" fill-opacity="1">
    <g transform="translate(15.536551, 313.844932)">
      <g>
        <path
          d="M 10.765625 0 L 5.59375 0 L 5.59375 -45.65625 L 26.140625 -45.65625 C 30.960938 -45.65625 34.800781 -44.320312 37.65625 -41.65625 C 40.457031 -38.988281 41.859375 -35.425781 41.859375 -30.96875 C 41.859375 -26.457031 40.441406 -22.878906 37.609375 -20.234375 C 34.785156 -17.597656 30.960938 -16.28125 26.140625 -16.28125 L 10.765625 -16.28125 Z M 10.765625 -40.765625 L 10.765625 -21.109375 L 25.796875 -21.109375 C 29.378906 -21.109375 32.085938 -21.976562 33.921875 -23.71875 C 35.765625 -25.46875 36.6875 -27.867188 36.6875 -30.921875 C 36.6875 -33.984375 35.765625 -36.390625 33.921875 -38.140625 C 32.085938 -39.890625 29.378906 -40.765625 25.796875 -40.765625 Z M 10.765625 -40.765625 " />
      </g>
    </g>
  </g>
  <g fill="#BCFBFF" fill-opacity="1">
    <g transform="translate(60.902795, 313.844932)">
      <g>
        <path
          d="M 45.453125 0 L 39.71875 0 L 34.140625 -13.234375 L 11.515625 -13.234375 L 5.9375 0 L 0.203125 0 L 19.59375 -45.65625 L 26.0625 -45.65625 Z M 32.140625 -18 L 22.828125 -40.28125 L 13.515625 -18 Z M 32.140625 -18 " />
      </g>
    </g>
  </g>
  <g fill="#BCFBFF" fill-opacity="1">
    <g transform="translate(108.613179, 313.844932)">
      <g>
        <path
          d="M 44.96875 -45.65625 L 44.96875 0 L 38.96875 0 L 10.765625 -38.546875 L 10.765625 0 L 5.59375 0 L 5.59375 -45.65625 L 11.59375 -45.65625 L 39.796875 -7.234375 L 39.796875 -45.65625 Z M 44.96875 -45.65625 " />
      </g>
    </g>
  </g>
  <g fill="#BCFBFF" fill-opacity="1">
    <g transform="translate(161.218632, 313.844932)">
      <g>
        <path
          d="M 24.828125 -45.65625 C 27.535156 -45.65625 30.15625 -45.132812 32.6875 -44.09375 C 35.21875 -43.0625 37.445312 -41.5625 39.375 -39.59375 C 43.65625 -35.21875 45.796875 -29.628906 45.796875 -22.828125 C 45.796875 -16.023438 43.65625 -10.4375 39.375 -6.0625 C 37.445312 -4.09375 35.21875 -2.585938 32.6875 -1.546875 C 30.15625 -0.515625 27.535156 0 24.828125 0 L 5.59375 0 L 5.59375 -45.65625 Z M 24.625 -4.890625 C 29.40625 -4.890625 33.289062 -6.660156 36.28125 -10.203125 C 39.175781 -13.609375 40.625 -17.816406 40.625 -22.828125 C 40.625 -27.835938 39.175781 -32.046875 36.28125 -35.453125 C 33.289062 -38.992188 29.40625 -40.765625 24.625 -40.765625 L 10.765625 -40.765625 L 10.765625 -4.890625 Z M 24.625 -4.890625 " />
      </g>
    </g>
  </g>
  <g fill="#BCFBFF" fill-opacity="1">
    <g transform="translate(211.824669, 313.844932)">
      <g>
        <path
          d="M 25.859375 -46.203125 C 32.671875 -46.203125 38.257812 -43.925781 42.625 -39.375 C 46.894531 -34.96875 49.03125 -29.453125 49.03125 -22.828125 C 49.03125 -16.203125 46.894531 -10.6875 42.625 -6.28125 C 38.257812 -1.726562 32.671875 0.546875 25.859375 0.546875 C 19.054688 0.546875 13.472656 -1.726562 9.109375 -6.28125 C 4.828125 -10.6875 2.6875 -16.203125 2.6875 -22.828125 C 2.6875 -29.453125 4.828125 -34.96875 9.109375 -39.375 C 13.472656 -43.925781 19.054688 -46.203125 25.859375 -46.203125 Z M 25.859375 -4.484375 C 31.285156 -4.484375 35.675781 -6.253906 39.03125 -9.796875 C 42.25 -13.191406 43.859375 -17.535156 43.859375 -22.828125 C 43.859375 -28.117188 42.25 -32.460938 39.03125 -35.859375 C 35.675781 -39.398438 31.285156 -41.171875 25.859375 -41.171875 C 20.429688 -41.171875 16.039062 -39.398438 12.6875 -35.859375 C 9.46875 -32.460938 7.859375 -28.117188 7.859375 -22.828125 C 7.859375 -17.535156 9.46875 -13.191406 12.6875 -9.796875 C 16.039062 -6.253906 20.429688 -4.484375 25.859375 -4.484375 Z M 25.859375 -4.484375 " />
      </g>
    </g>
  </g>
  <g fill="#BCFBFF" fill-opacity="1">
    <g transform="translate(265.602166, 313.844932)">
      <g>
        <path
          d="M 10.765625 0 L 5.59375 0 L 5.59375 -45.65625 L 27.453125 -45.65625 C 32.097656 -45.65625 35.820312 -44.367188 38.625 -41.796875 C 41.425781 -39.265625 42.828125 -35.789062 42.828125 -31.375 C 42.828125 -25.675781 40.457031 -21.789062 35.71875 -19.71875 C 34.382812 -19.125 33.078125 -18.691406 31.796875 -18.421875 L 43.796875 0 L 37.65625 0 L 26.625 -17.515625 L 10.765625 -17.515625 Z M 10.765625 -22.421875 L 26.546875 -22.421875 C 31.421875 -22.421875 34.78125 -23.9375 36.625 -26.96875 C 37.3125 -28.113281 37.65625 -29.582031 37.65625 -31.375 C 37.65625 -34.269531 36.664062 -36.554688 34.6875 -38.234375 C 32.707031 -39.921875 30.085938 -40.765625 26.828125 -40.765625 L 10.765625 -40.765625 Z M 10.765625 -22.421875 " />
      </g>
    </g>
  </g>
  <g fill="#BCFBFF" fill-opacity="1">
    <g transform="translate(313.795152, 313.844932)">
      <g>
        <path
          d="M 45.453125 0 L 39.71875 0 L 34.140625 -13.234375 L 11.515625 -13.234375 L 5.9375 0 L 0.203125 0 L 19.59375 -45.65625 L 26.0625 -45.65625 Z M 32.140625 -18 L 22.828125 -40.28125 L 13.515625 -18 Z M 32.140625 -18 " />
      </g>
    </g>
  </g>
  <g fill="#ffffff" fill-opacity="1">
    <g transform="translate(64.286492, 353.731662)">
      <g>
        <path d="M 4.59375 0 L 2.390625 0 L 2.390625 -19.484375 L 4.59375 -19.484375 Z M 4.59375 0 " />
      </g>
    </g>
  </g>
  <g fill="#ffffff" fill-opacity="1">
    <g transform="translate(76.351955, 353.731662)">
      <g>
        <path
          d="M 19.1875 -19.484375 L 19.1875 0 L 16.625 0 L 4.59375 -16.453125 L 4.59375 0 L 2.390625 0 L 2.390625 -19.484375 L 4.9375 -19.484375 L 16.96875 -3.09375 L 16.96875 -19.484375 Z M 19.1875 -19.484375 " />
      </g>
    </g>
  </g>
  <g fill="#ffffff" fill-opacity="1">
    <g transform="translate(103.011389, 353.731662)">
      <g>
        <path
          d="M 19.1875 -19.484375 L 19.1875 0 L 16.625 0 L 4.59375 -16.453125 L 4.59375 0 L 2.390625 0 L 2.390625 -19.484375 L 4.9375 -19.484375 L 16.96875 -3.09375 L 16.96875 -19.484375 Z M 19.1875 -19.484375 " />
      </g>
    </g>
  </g>
  <g fill="#ffffff" fill-opacity="1">
    <g transform="translate(129.670821, 353.731662)">
      <g>
        <path
          d="M 11.03125 -19.71875 C 13.9375 -19.71875 16.320312 -18.742188 18.1875 -16.796875 C 20.007812 -14.910156 20.921875 -12.554688 20.921875 -9.734375 C 20.921875 -6.910156 20.007812 -4.554688 18.1875 -2.671875 C 16.320312 -0.734375 13.9375 0.234375 11.03125 0.234375 C 8.125 0.234375 5.742188 -0.734375 3.890625 -2.671875 C 2.054688 -4.554688 1.140625 -6.910156 1.140625 -9.734375 C 1.140625 -12.554688 2.054688 -14.910156 3.890625 -16.796875 C 5.742188 -18.742188 8.125 -19.71875 11.03125 -19.71875 Z M 11.03125 -1.90625 C 13.34375 -1.90625 15.21875 -2.660156 16.65625 -4.171875 C 18.03125 -5.628906 18.71875 -7.484375 18.71875 -9.734375 C 18.71875 -11.992188 18.03125 -13.847656 16.65625 -15.296875 C 15.21875 -16.804688 13.34375 -17.5625 11.03125 -17.5625 C 8.71875 -17.5625 6.84375 -16.804688 5.40625 -15.296875 C 4.039062 -13.847656 3.359375 -11.992188 3.359375 -9.734375 C 3.359375 -7.484375 4.039062 -5.628906 5.40625 -4.171875 C 6.84375 -2.660156 8.71875 -1.90625 11.03125 -1.90625 Z M 11.03125 -1.90625 " />
      </g>
    </g>
  </g>
  <g fill="#ffffff" fill-opacity="1">
    <g transform="translate(156.83044, 353.731662)">
      <g>
        <path
          d="M 18.390625 -19.484375 L 10.5 0 L 7.96875 0 L 0.09375 -19.484375 L 2.5 -19.484375 L 9.234375 -2.5 L 15.96875 -19.484375 Z M 18.390625 -19.484375 " />
      </g>
    </g>
  </g>
  <g fill="#ffffff" fill-opacity="1">
    <g transform="translate(180.400427, 353.731662)">
      <g>
        <path
          d="M 19.390625 0 L 16.953125 0 L 14.5625 -5.65625 L 4.90625 -5.65625 L 2.53125 0 L 0.09375 0 L 8.359375 -19.484375 L 11.125 -19.484375 Z M 13.703125 -7.671875 L 9.734375 -17.1875 L 5.765625 -7.671875 Z M 13.703125 -7.671875 " />
      </g>
    </g>
  </g>
  <g fill="#ffffff" fill-opacity="1">
    <g transform="translate(204.970802, 353.731662)">
      <g>
        <path
          d="M 16.21875 -17.359375 L 9.421875 -17.359375 L 9.421875 0 L 7.203125 0 L 7.203125 -17.359375 L 0.40625 -17.359375 L 0.40625 -19.484375 L 16.21875 -19.484375 Z M 16.21875 -17.359375 " />
      </g>
    </g>
  </g>
  <g fill="#ffffff" fill-opacity="1">
    <g transform="translate(226.687118, 353.731662)">
      <g>
        <path d="M 4.59375 0 L 2.390625 0 L 2.390625 -19.484375 L 4.59375 -19.484375 Z M 4.59375 0 " />
      </g>
    </g>
  </g>
  <g fill="#ffffff" fill-opacity="1">
    <g transform="translate(238.752584, 353.731662)">
      <g>
        <path
          d="M 11.03125 -19.71875 C 13.9375 -19.71875 16.320312 -18.742188 18.1875 -16.796875 C 20.007812 -14.910156 20.921875 -12.554688 20.921875 -9.734375 C 20.921875 -6.910156 20.007812 -4.554688 18.1875 -2.671875 C 16.320312 -0.734375 13.9375 0.234375 11.03125 0.234375 C 8.125 0.234375 5.742188 -0.734375 3.890625 -2.671875 C 2.054688 -4.554688 1.140625 -6.910156 1.140625 -9.734375 C 1.140625 -12.554688 2.054688 -14.910156 3.890625 -16.796875 C 5.742188 -18.742188 8.125 -19.71875 11.03125 -19.71875 Z M 11.03125 -1.90625 C 13.34375 -1.90625 15.21875 -2.660156 16.65625 -4.171875 C 18.03125 -5.628906 18.71875 -7.484375 18.71875 -9.734375 C 18.71875 -11.992188 18.03125 -13.847656 16.65625 -15.296875 C 15.21875 -16.804688 13.34375 -17.5625 11.03125 -17.5625 C 8.71875 -17.5625 6.84375 -16.804688 5.40625 -15.296875 C 4.039062 -13.847656 3.359375 -11.992188 3.359375 -9.734375 C 3.359375 -7.484375 4.039062 -5.628906 5.40625 -4.171875 C 6.84375 -2.660156 8.71875 -1.90625 11.03125 -1.90625 Z M 11.03125 -1.90625 " />
      </g>
    </g>
  </g>
  <g fill="#ffffff" fill-opacity="1">
    <g transform="translate(265.912192, 353.731662)">
      <g>
        <path
          d="M 19.1875 -19.484375 L 19.1875 0 L 16.625 0 L 4.59375 -16.453125 L 4.59375 0 L 2.390625 0 L 2.390625 -19.484375 L 4.9375 -19.484375 L 16.96875 -3.09375 L 16.96875 -19.484375 Z M 19.1875 -19.484375 " />
      </g>
    </g>
  </g>
  <g fill="#ffffff" fill-opacity="1">
    <g transform="translate(292.57163, 353.731662)">
      <g>
        <path
          d="M 4.609375 -16.484375 C 4.242188 -16.160156 3.992188 -15.800781 3.859375 -15.40625 C 3.734375 -15.019531 3.671875 -14.601562 3.671875 -14.15625 C 3.671875 -13.71875 3.863281 -13.3125 4.25 -12.9375 C 4.632812 -12.570312 5.140625 -12.257812 5.765625 -12 C 6.390625 -11.75 7.101562 -11.523438 7.90625 -11.328125 C 8.71875 -11.128906 9.539062 -10.925781 10.375 -10.71875 C 11.207031 -10.519531 12.023438 -10.285156 12.828125 -10.015625 C 13.628906 -9.753906 14.34375 -9.414062 14.96875 -9 C 16.363281 -8.113281 17.0625 -6.910156 17.0625 -5.390625 C 17.0625 -3.554688 16.378906 -2.160156 15.015625 -1.203125 C 13.648438 -0.242188 11.765625 0.234375 9.359375 0.234375 C 6.628906 0.234375 4.550781 -0.332031 3.125 -1.46875 C 1.84375 -2.488281 1.113281 -3.941406 0.9375 -5.828125 L 3.234375 -5.828125 C 3.316406 -4.492188 3.960938 -3.472656 5.171875 -2.765625 C 6.234375 -2.160156 7.640625 -1.859375 9.390625 -1.859375 C 13.035156 -1.859375 14.859375 -3.003906 14.859375 -5.296875 C 14.859375 -6.078125 14.53125 -6.691406 13.875 -7.140625 C 13.21875 -7.597656 12.394531 -7.972656 11.40625 -8.265625 C 10.414062 -8.554688 9.34375 -8.828125 8.1875 -9.078125 C 7.039062 -9.335938 5.972656 -9.671875 4.984375 -10.078125 C 3.992188 -10.484375 3.171875 -11.015625 2.515625 -11.671875 C 1.859375 -12.328125 1.53125 -13.210938 1.53125 -14.328125 C 1.53125 -15.921875 2.132812 -17.21875 3.34375 -18.21875 C 4.5625 -19.21875 6.398438 -19.71875 8.859375 -19.71875 C 11.328125 -19.71875 13.238281 -19.144531 14.59375 -18 C 15.832031 -17 16.488281 -15.71875 16.5625 -14.15625 L 14.296875 -14.15625 C 14.097656 -15.757812 13.0625 -16.828125 11.1875 -17.359375 C 10.519531 -17.554688 9.6875 -17.65625 8.6875 -17.65625 C 7.695312 -17.65625 6.863281 -17.539062 6.1875 -17.3125 C 5.507812 -17.082031 4.984375 -16.804688 4.609375 -16.484375 Z M 4.609375 -16.484375 " />
      </g>
    </g>
  </g>
  <g clip-path="url(#f899b4f4c2)">
    <path fill="#0ea5e9"
      d="M 168.035156 118.460938 L 177.757812 125.101562 C 178.261719 124.191406 179.226562 123.570312 180.339844 123.570312 L 195.167969 123.570312 C 196.78125 123.570312 198.105469 124.894531 198.105469 126.507812 L 198.105469 141.339844 C 198.105469 142.957031 196.78125 144.273438 195.167969 144.273438 L 187.980469 144.273438 L 181.738281 156.585938 L 182.984375 156.585938 C 185.0625 156.585938 186.761719 158.28125 186.761719 160.359375 L 186.761719 168.601562 L 207.707031 168.945312 L 207.707031 168.433594 C 207.707031 167.203125 208.710938 166.195312 209.941406 166.195312 L 221.242188 166.195312 C 222.472656 166.195312 223.476562 167.199219 223.476562 168.433594 L 223.476562 179.734375 C 223.476562 180.964844 222.472656 181.972656 221.242188 181.972656 L 209.941406 181.972656 C 208.710938 181.972656 207.707031 180.96875 207.707031 179.734375 L 207.707031 174.515625 L 186.761719 174.175781 L 186.761719 179.433594 C 186.761719 181.511719 185.0625 183.207031 182.984375 183.207031 L 163.914062 183.207031 C 161.835938 183.207031 160.140625 181.511719 160.140625 179.433594 L 160.140625 160.363281 C 160.140625 158.285156 161.835938 156.589844 163.914062 156.589844 L 175.484375 156.589844 L 181.730469 144.277344 L 180.339844 144.277344 C 178.71875 144.277344 177.402344 142.960938 177.402344 141.34375 L 177.402344 131.613281 L 167.46875 124.828125 C 166.671875 126.285156 165.128906 127.277344 163.359375 127.277344 L 139.703125 127.277344 C 137.125 127.277344 135.023438 125.171875 135.023438 122.589844 L 135.023438 98.9375 C 135.023438 96.359375 137.128906 94.257812 139.703125 94.257812 L 163.359375 94.257812 C 165.9375 94.257812 168.039062 96.363281 168.039062 98.9375 L 168.039062 118.460938 Z M 116.164062 89.320312 L 103.226562 105.628906 L 103.226562 121.695312 C 103.226562 122.480469 102.953125 123.203125 102.496094 123.773438 L 111.8125 134.90625 L 128.113281 134.90625 C 130.691406 134.90625 132.792969 137.015625 132.792969 139.59375 L 132.792969 163.246094 C 132.792969 165.824219 130.6875 167.933594 128.113281 167.933594 L 104.457031 167.933594 C 101.878906 167.933594 99.777344 165.824219 99.777344 163.246094 L 99.777344 139.59375 C 99.777344 137.015625 101.882812 134.90625 104.457031 134.90625 L 104.535156 134.90625 L 96.285156 125.050781 L 82.917969 125.050781 C 81.074219 125.050781 79.566406 123.542969 79.566406 121.699219 L 79.566406 104.75 C 79.566406 102.90625 81.074219 101.398438 82.917969 101.398438 L 99.460938 101.398438 L 109.164062 89.164062 C 107.167969 88.632812 105.6875 86.800781 105.6875 84.640625 L 105.6875 60.984375 C 105.6875 58.402344 107.792969 56.296875 110.367188 56.296875 L 134.023438 56.296875 C 136.601562 56.296875 138.703125 58.402344 138.703125 60.984375 L 138.703125 84.636719 C 138.703125 87.214844 136.597656 89.320312 134.023438 89.320312 Z M 232.398438 205.882812 L 246.90625 189.847656 L 246.902344 189.65625 L 246.902344 162.46875 C 246.902344 161.019531 247.484375 159.699219 248.421875 158.730469 L 240.785156 149.875 C 240.527344 149.917969 240.257812 149.9375 239.992188 149.9375 L 216.332031 149.9375 C 213.753906 149.9375 211.652344 147.832031 211.652344 145.253906 L 211.652344 121.597656 C 211.652344 119.019531 213.757812 116.917969 216.332031 116.917969 L 239.992188 116.917969 C 242.570312 116.917969 244.671875 119.023438 244.671875 121.597656 L 244.671875 145.253906 C 244.671875 145.445312 244.660156 145.632812 244.640625 145.820312 L 254.355469 157.09375 L 279.453125 157.09375 C 282.414062 157.09375 284.832031 159.511719 284.832031 162.46875 L 284.832031 189.652344 C 284.832031 192.609375 282.410156 195.027344 279.453125 195.027344 L 252.273438 195.027344 C 251.511719 195.027344 250.78125 194.863281 250.121094 194.574219 L 236.78125 209.324219 L 236.78125 225.339844 C 236.78125 227.109375 235.335938 228.554688 233.570312 228.554688 L 217.324219 228.554688 C 215.554688 228.554688 214.113281 227.109375 214.113281 225.339844 L 214.113281 209.09375 C 214.113281 207.328125 215.558594 205.882812 217.324219 205.882812 Z M 277.25 113.71875 L 268.425781 96.699219 L 256.71875 96.699219 C 254.835938 96.699219 253.296875 95.164062 253.296875 93.28125 L 253.296875 75.988281 C 253.296875 74.101562 254.835938 72.566406 256.71875 72.566406 L 274.011719 72.566406 C 275.894531 72.566406 277.433594 74.101562 277.433594 75.988281 L 277.433594 93.28125 C 277.433594 94.9375 276.242188 96.332031 274.667969 96.640625 L 283.527344 113.71875 L 292.003906 113.71875 C 293.886719 113.71875 295.425781 115.253906 295.425781 117.136719 L 295.425781 134.429688 C 295.425781 136.3125 293.886719 137.851562 292.003906 137.851562 L 274.710938 137.851562 C 272.828125 137.851562 271.292969 136.3125 271.292969 134.429688 L 271.292969 117.136719 C 271.292969 115.253906 272.828125 113.71875 274.710938 113.71875 Z M 167.542969 37.566406 L 191.199219 37.566406 C 193.777344 37.566406 195.878906 39.675781 195.878906 42.25 L 195.878906 65.90625 C 195.878906 68.488281 193.773438 70.589844 191.199219 70.589844 L 186.785156 70.589844 L 191.703125 82.671875 L 204.035156 82.671875 C 204.257812 82.671875 204.46875 82.691406 204.675781 82.734375 L 212.121094 76.445312 C 211.222656 75.59375 210.664062 74.386719 210.664062 73.054688 L 210.664062 49.398438 C 210.664062 46.820312 212.769531 44.714844 215.34375 44.714844 L 239.003906 44.714844 C 241.582031 44.714844 243.683594 46.820312 243.683594 49.398438 L 243.683594 73.054688 C 243.683594 75.632812 241.578125 77.734375 239.003906 77.734375 L 219.238281 77.734375 L 207.449219 87.6875 L 207.449219 103.386719 C 207.449219 105.269531 205.914062 106.808594 204.03125 106.808594 L 186.734375 106.808594 C 184.851562 106.808594 183.316406 105.269531 183.316406 103.386719 L 183.316406 86.09375 C 183.316406 84.554688 184.335938 83.25 185.734375 82.820312 L 180.753906 70.589844 L 167.539062 70.589844 C 164.960938 70.589844 162.855469 68.484375 162.855469 65.90625 L 162.855469 42.25 C 162.863281 39.675781 164.96875 37.566406 167.542969 37.566406 Z M 167.542969 37.566406 "
      fill-opacity="1" fill-rule="evenodd" />
  </g>
</svg>