<svg width="47" height="47" viewBox="0 0 47 47" fill="none" xmlns="http://www.w3.org/2000/svg">
<path d="M33.2916 41.6149H13.7083C6.56038 41.6149 2.44788 37.5024 2.44788 30.3545V16.6462C2.44788 9.49824 6.56038 5.38574 13.7083 5.38574H33.2916C40.4395 5.38574 44.552 9.49824 44.552 16.6462V30.3545C44.552 37.5024 40.4395 41.6149 33.2916 41.6149ZM13.7083 8.32324C8.10746 8.32324 5.38538 11.0453 5.38538 16.6462V30.3545C5.38538 35.9553 8.10746 38.6774 13.7083 38.6774H33.2916C38.8925 38.6774 41.6145 35.9553 41.6145 30.3545V16.6462C41.6145 11.0453 38.8925 8.32324 33.2916 8.32324H13.7083Z" fill="url(#paint0_linear_111_110)"/>
<path d="M23.4996 25.2034C21.8546 25.2034 20.19 24.6943 18.9171 23.6564L12.7875 18.7605C12.1609 18.2514 12.0434 17.3309 12.5525 16.7043C13.0617 16.0776 13.9821 15.9601 14.6088 16.4693L20.7383 21.3651C22.2267 22.5597 24.7529 22.5597 26.2413 21.3651L32.3709 16.4693C32.9975 15.9601 33.9375 16.058 34.4271 16.7043C34.9363 17.3309 34.8384 18.271 34.1921 18.7605L28.0625 23.6564C26.8092 24.6943 25.1446 25.2034 23.4996 25.2034Z" fill="url(#paint1_linear_111_110)"/>
<defs>
<linearGradient id="paint0_linear_111_110" x1="23.5" y1="5.38574" x2="23.5" y2="41.6149" gradientUnits="userSpaceOnUse">
<stop stop-color="#9ADEE8"/>
<stop offset="1" stop-color="#008DD2"/>
</linearGradient>
<linearGradient id="paint1_linear_111_110" x1="23.4929" y1="16.1445" x2="23.4929" y2="25.2034" gradientUnits="userSpaceOnUse">
<stop stop-color="#9ADEE8"/>
<stop offset="1" stop-color="#008DD2"/>
</linearGradient>
</defs>
</svg>
