<svg width="34" height="34" viewBox="0 0 34 34" fill="none" xmlns="http://www.w3.org/2000/svg">
<path d="M20.836 32.1367H14.4793V21.8953H13.1373C12.318 21.8953 11.6541 21.2314 11.6541 20.4121V17.7281C11.6541 16.9088 12.318 16.2448 13.1373 16.2448H14.4793V12.7133C14.4793 9.7892 16.8525 7.41602 19.7766 7.41602H23.5906C24.41 7.41602 25.0739 8.07993 25.0739 8.89924V12.2895C25.0739 13.1089 24.41 13.7728 23.5906 13.7728H20.836V16.2448H23.4918C23.9438 16.2448 24.3534 16.4426 24.636 16.7816C24.9185 17.1207 25.0315 17.5727 24.9467 18.0106L24.4099 20.6946C24.2687 21.3867 23.6613 21.8812 22.955 21.8812H20.836V32.1367ZM16.5982 30.0178H18.7171V19.7764H22.4464L22.7289 18.3638H18.7313V13.1371C18.7313 12.3178 19.3952 11.6539 20.2145 11.6539H22.9691V9.53493H19.7766C18.0249 9.53493 16.5982 10.9617 16.5982 12.7133V18.3638H13.773V19.7764H16.5982V30.0178Z" fill="white"/>
<path d="M21.1893 32.1368H12.7136C5.04313 32.1368 1.76587 28.8595 1.76587 21.189V12.7134C1.76587 5.04289 5.04313 1.76562 12.7136 1.76562H21.1893C28.8598 1.76562 32.137 5.04289 32.137 12.7134V21.189C32.137 28.8595 28.8598 32.1368 21.1893 32.1368ZM12.7136 3.88454C6.20147 3.88454 3.88479 6.20123 3.88479 12.7134V21.189C3.88479 27.7012 6.20147 30.0179 12.7136 30.0179H21.1893C27.7014 30.0179 30.0181 27.7012 30.0181 21.189V12.7134C30.0181 6.20123 27.7014 3.88454 21.1893 3.88454H12.7136Z" fill="white"/>
</svg>
