<svg width="122" height="122" viewBox="0 0 122 122" fill="none" xmlns="http://www.w3.org/2000/svg">
<path d="M81.3334 115.646H40.6668C17.1818 115.646 12.8101 104.717 11.6918 94.0925L7.87926 53.375C7.3201 48.0375 7.1676 40.1583 12.4543 34.2617C17.0293 29.1783 24.6034 26.7383 35.5834 26.7383H86.4168C97.4476 26.7383 105.022 29.2292 109.546 34.2617C114.833 40.1583 114.68 48.0375 114.121 53.4258L110.308 94.0417C109.19 104.717 104.818 115.646 81.3334 115.646ZM35.5834 34.3125C26.9926 34.3125 21.0959 35.99 18.0968 39.345C15.6059 42.09 14.7926 46.3092 15.4534 52.6125L19.2659 93.33C20.1301 101.362 22.3159 108.021 40.6668 108.021H81.3334C99.6334 108.021 101.87 101.362 102.734 93.2792L106.547 52.6633C107.208 46.3092 106.394 42.09 103.903 39.345C100.904 35.99 95.0076 34.3125 86.4168 34.3125H35.5834Z" fill="#BCFBFF"/>
<path d="M81.3334 34.3125C79.2492 34.3125 77.5209 32.5842 77.5209 30.5V26.4333C77.5209 17.385 77.5209 13.9792 65.0667 13.9792H56.9334C44.4792 13.9792 44.4792 17.385 44.4792 26.4333V30.5C44.4792 32.5842 42.7509 34.3125 40.6667 34.3125C38.5826 34.3125 36.8542 32.5842 36.8542 30.5V26.4333C36.8542 17.4867 36.8542 6.35416 56.9334 6.35416H65.0667C85.1459 6.35416 85.1459 17.4867 85.1459 26.4333V30.5C85.1459 32.5842 83.4176 34.3125 81.3334 34.3125Z" fill="#BCFBFF"/>
<path d="M60.9999 85.1458C47.0208 85.1458 47.0208 76.5042 47.0208 71.3192V66.0833C47.0208 58.9158 48.7491 57.1875 55.9166 57.1875H66.0833C73.2508 57.1875 74.9791 58.9158 74.9791 66.0833V71.1667C74.9791 76.4533 74.9791 85.1458 60.9999 85.1458ZM54.6458 64.8125C54.6458 65.2192 54.6458 65.6767 54.6458 66.0833V71.3192C54.6458 76.555 54.6458 77.5208 60.9999 77.5208C67.3541 77.5208 67.3541 76.7075 67.3541 71.2683V66.0833C67.3541 65.6767 67.3541 65.2192 67.3541 64.8125C66.9474 64.8125 66.4899 64.8125 66.0833 64.8125H55.9166C55.5099 64.8125 55.0524 64.8125 54.6458 64.8125Z" fill="#BCFBFF"/>
<path d="M71.1666 75.0809C69.2858 75.0809 67.6083 73.6575 67.405 71.7258C67.1508 69.6417 68.625 67.71 70.7091 67.4559C84.1291 65.7784 96.99 60.695 107.817 52.8159C109.495 51.545 111.884 51.9517 113.155 53.68C114.375 55.3575 114.019 57.7467 112.291 59.0175C100.396 67.6592 86.3658 73.2 71.6241 75.0809C71.4716 75.0809 71.3191 75.0809 71.1666 75.0809Z" fill="#BCFBFF"/>
<path d="M50.8333 75.1317C50.6808 75.1317 50.5283 75.1317 50.3758 75.1317C36.4475 73.5559 22.875 68.4725 11.1325 60.4409C9.40418 59.2717 8.94668 56.8825 10.1158 55.1542C11.285 53.4258 13.6742 52.9683 15.4025 54.1375C26.1283 61.4575 38.4808 66.0833 51.1892 67.5575C53.2733 67.8117 54.7983 69.6925 54.5442 71.7767C54.3917 73.7084 52.765 75.1317 50.8333 75.1317Z" fill="#BCFBFF"/>
</svg>
