<svg width="43" height="43" viewBox="0 0 43 43" fill="none" xmlns="http://www.w3.org/2000/svg">
<path d="M26.8749 40.7601H16.1249C6.39617 40.7601 2.2395 36.6034 2.2395 26.8747V16.1247C2.2395 6.39593 6.39617 2.23926 16.1249 2.23926H26.8749C36.6037 2.23926 40.7603 6.39593 40.7603 16.1247V26.8747C40.7603 36.6034 36.6037 40.7601 26.8749 40.7601ZM16.1249 4.92676C7.86534 4.92676 4.927 7.86509 4.927 16.1247V26.8747C4.927 35.1343 7.86534 38.0726 16.1249 38.0726H26.8749C35.1345 38.0726 38.0728 35.1343 38.0728 26.8747V16.1247C38.0728 7.86509 35.1345 4.92676 26.8749 4.92676H16.1249Z" fill="url(#paint0_linear_111_218)"/>
<path d="M21.5001 29.1149C17.3076 29.1149 13.8855 25.6928 13.8855 21.5003C13.8855 17.3078 17.3076 13.8857 21.5001 13.8857C25.6926 13.8857 29.1147 17.3078 29.1147 21.5003C29.1147 25.6928 25.6926 29.1149 21.5001 29.1149ZM21.5001 16.5732C18.7767 16.5732 16.573 18.777 16.573 21.5003C16.573 24.2237 18.7767 26.4274 21.5001 26.4274C24.2234 26.4274 26.4272 24.2237 26.4272 21.5003C26.4272 18.777 24.2234 16.5732 21.5001 16.5732Z" fill="url(#paint1_linear_111_218)"/>
<path d="M30.4584 13.4375C30.2255 13.4375 29.9926 13.3837 29.7776 13.2941C29.5626 13.2045 29.3655 13.0791 29.1863 12.9179C29.0251 12.7387 28.8817 12.5416 28.7922 12.3266C28.7026 12.1116 28.6667 11.8787 28.6667 11.6458C28.6667 11.4129 28.7026 11.18 28.7922 10.965C28.8997 10.732 29.0251 10.5529 29.1863 10.3737C29.2759 10.302 29.3655 10.2125 29.4551 10.1587C29.5626 10.087 29.6701 10.0333 29.7776 9.99745C29.8851 9.9437 29.9926 9.90787 30.118 9.88995C30.6913 9.76453 31.3005 9.96162 31.7305 10.3737C31.8917 10.5529 32.0172 10.732 32.1067 10.965C32.1963 11.18 32.2501 11.4129 32.2501 11.6458C32.2501 11.8787 32.1963 12.1116 32.1067 12.3266C32.0172 12.5416 31.8917 12.7387 31.7305 12.9179C31.5513 13.0791 31.3542 13.2045 31.1392 13.2941C30.9242 13.3837 30.6913 13.4375 30.4584 13.4375Z" fill="url(#paint2_linear_111_218)"/>
<defs>
<linearGradient id="paint0_linear_111_218" x1="21.4999" y1="2.23926" x2="21.4999" y2="40.7601" gradientUnits="userSpaceOnUse">
<stop stop-color="#BCFBFF"/>
<stop offset="1" stop-color="#4A9BDB"/>
</linearGradient>
<linearGradient id="paint1_linear_111_218" x1="21.5001" y1="13.8857" x2="21.5001" y2="29.1149" gradientUnits="userSpaceOnUse">
<stop stop-color="#BCFBFF"/>
<stop offset="1" stop-color="#4A9BDB"/>
</linearGradient>
<linearGradient id="paint2_linear_111_218" x1="30.4584" y1="9.85254" x2="30.4584" y2="13.4375" gradientUnits="userSpaceOnUse">
<stop stop-color="#BCFBFF"/>
<stop offset="1" stop-color="#4A9BDB"/>
</linearGradient>
</defs>
</svg>
