<svg width="33" height="31" viewBox="0 0 33 31" fill="none" xmlns="http://www.w3.org/2000/svg">
<rect x="1.88379" y="2.05664" width="28.827" height="27.4432" rx="9.5" stroke="white" stroke-width="3"/>
<path d="M10.1811 21.5518V13.3918H12.3891V21.5518H10.1811ZM11.2851 12.4158C10.9117 12.4158 10.5864 12.2824 10.3091 12.0158C10.0424 11.7384 9.90907 11.4131 9.90907 11.0398C9.90907 10.6664 10.0424 10.3464 10.3091 10.0798C10.5864 9.80242 10.9117 9.66376 11.2851 9.66376C11.6584 9.66376 11.9784 9.80242 12.2451 10.0798C12.5224 10.3464 12.6611 10.6664 12.6611 11.0398C12.6611 11.4131 12.5224 11.7384 12.2451 12.0158C11.9784 12.2824 11.6584 12.4158 11.2851 12.4158ZM14.4467 21.5518V16.8638C14.4467 16.1918 14.6014 15.5784 14.9107 15.0238C15.2307 14.4691 15.6894 14.0264 16.2867 13.6958C16.884 13.3651 17.5987 13.1998 18.4307 13.1998C19.2734 13.1998 19.988 13.3651 20.5747 13.6958C21.172 14.0264 21.6254 14.4691 21.9347 15.0238C22.2547 15.5784 22.4147 16.1918 22.4147 16.8638V21.5518H20.2227V16.8638C20.2227 16.5331 20.1427 16.2344 19.9827 15.9678C19.8227 15.6904 19.604 15.4718 19.3267 15.3118C19.06 15.1518 18.7614 15.0718 18.4307 15.0718C18.1 15.0718 17.796 15.1518 17.5187 15.3118C17.252 15.4718 17.0387 15.6904 16.8787 15.9678C16.7187 16.2344 16.6387 16.5331 16.6387 16.8638V21.5518H14.4467Z" fill="white"/>
</svg>
