<svg xmlns="http://www.w3.org/2000/svg" xmlns:xlink="http://www.w3.org/1999/xlink" width="1080" zoomAndPan="magnify" viewBox="0 0 810 809.999993" height="1080" preserveAspectRatio="xMidYMid meet" version="1.0"><path fill="#00f0ff" d="M 741.71875 396.078125 C 730.246094 205.222656 552.441406 58.132812 347.640625 91.039062 C 206.609375 113.742188 93.582031 225.296875 71.652344 362.84375 C 58.832031 442.476562 75.703125 517.832031 112.476562 580.027344 L 82.449219 688.945312 C 75.703125 713.625 98.980469 736 123.949219 729.089844 L 233.941406 699.476562 C 283.875 728.101562 342.242188 744.554688 404.660156 744.554688 C 594.949219 744.554688 752.847656 581.007812 741.71875 396.078125 Z M 569.648438 537.90625 C 566.613281 543.828125 562.902344 549.425781 558.175781 554.6875 C 549.742188 563.574219 540.628906 570.152344 530.511719 574.101562 C 520.386719 578.378906 509.253906 580.351562 497.445312 580.351562 C 480.238281 580.351562 461.679688 576.402344 442.449219 568.179688 C 422.878906 559.949219 403.648438 549.09375 384.417969 535.601562 C 364.847656 521.78125 346.628906 506.316406 329.085938 489.53125 C 311.539062 472.421875 296.019531 454.324219 281.847656 435.566406 C 268.015625 416.808594 256.882812 398.054688 248.785156 379.296875 C 240.6875 360.539062 236.640625 342.441406 236.640625 325.332031 C 236.640625 314.144531 238.664062 303.285156 242.710938 293.410156 C 246.761719 283.210938 253.171875 273.996094 262.28125 265.769531 C 273.078125 255.242188 284.886719 250.304688 297.371094 250.304688 C 302.09375 250.304688 306.816406 251.292969 311.203125 253.265625 C 315.589844 255.238281 319.636719 258.203125 322.675781 262.480469 L 361.8125 316.445312 C 364.847656 320.722656 367.210938 324.34375 368.558594 327.960938 C 370.246094 331.582031 370.921875 334.871094 370.921875 338.164062 C 370.921875 342.113281 369.574219 346.0625 367.210938 350.011719 C 364.847656 353.957031 361.8125 357.90625 357.761719 361.855469 L 344.941406 375.019531 C 342.917969 376.992188 342.246094 378.96875 342.246094 381.601562 C 342.246094 382.917969 342.578125 384.230469 342.917969 385.550781 C 343.59375 386.863281 343.929688 387.851562 344.269531 388.839844 C 347.304688 394.433594 352.703125 401.34375 360.125 409.898438 C 367.886719 418.453125 375.984375 427.339844 384.753906 435.894531 C 393.867188 444.78125 402.636719 452.675781 411.746094 460.246094 C 420.519531 467.484375 427.941406 472.421875 433.675781 475.382812 C 434.6875 475.710938 435.703125 476.371094 436.714844 476.699219 C 438.0625 477.355469 439.414062 477.359375 441.101562 477.359375 C 444.136719 477.359375 446.160156 476.371094 448.1875 474.394531 L 461.003906 461.890625 C 465.390625 457.613281 469.441406 454.652344 473.152344 452.675781 C 477.203125 450.375 480.914062 449.058594 485.296875 449.058594 C 488.671875 449.058594 492.046875 449.714844 495.757812 451.359375 C 499.46875 453.007812 503.515625 454.980469 507.566406 457.941406 L 563.574219 496.773438 C 567.960938 499.734375 570.996094 503.355469 573.019531 507.300781 C 574.707031 511.578125 575.71875 515.527344 575.71875 520.136719 C 573.695312 525.730469 572.347656 531.984375 569.648438 537.90625 Z M 569.648438 537.90625 " fill-opacity="1" fill-rule="nonzero"/></svg>